<mxfile host="app.diagrams.net" agent="Mozilla/5.0 (X11; Linux x86_64) AppleWebKit/537.36 (KHTML, like Gecko) Chrome/130.0.0.0 Safari/537.36" version="24.8.0">
  <diagram id="C5RBs43oDa-KdzZeNtuy" name="Page-1">
    <mxGraphModel dx="1137" dy="633" grid="1" gridSize="10" guides="1" tooltips="1" connect="1" arrows="1" fold="1" page="1" pageScale="1" pageWidth="827" pageHeight="1169" math="0" shadow="0">
      <root>
        <mxCell id="WIyWlLk6GJQsqaUBKTNV-0" />
        <mxCell id="WIyWlLk6GJQsqaUBKTNV-1" parent="WIyWlLk6GJQsqaUBKTNV-0" />
        <mxCell id="H_E5LtV-WD_p9e9fuidO-8" style="edgeStyle=orthogonalEdgeStyle;rounded=0;orthogonalLoop=1;jettySize=auto;html=1;entryX=0.5;entryY=0;entryDx=0;entryDy=0;exitX=0.5;exitY=1;exitDx=0;exitDy=0;exitPerimeter=0;align=center;verticalAlign=middle;" parent="WIyWlLk6GJQsqaUBKTNV-1" source="wd-08_OIUGV9MqruQdf7-0" target="H_E5LtV-WD_p9e9fuidO-7" edge="1">
          <mxGeometry relative="1" as="geometry" />
        </mxCell>
        <mxCell id="wd-08_OIUGV9MqruQdf7-0" value="" style="verticalLabelPosition=bottom;verticalAlign=middle;html=1;shape=mxgraph.flowchart.on-page_reference;align=center;" parent="WIyWlLk6GJQsqaUBKTNV-1" vertex="1">
          <mxGeometry x="117.5" y="20" width="60" height="60" as="geometry" />
        </mxCell>
        <mxCell id="H_E5LtV-WD_p9e9fuidO-12" value="" style="edgeStyle=orthogonalEdgeStyle;rounded=0;orthogonalLoop=1;jettySize=auto;html=1;align=center;verticalAlign=middle;" parent="WIyWlLk6GJQsqaUBKTNV-1" source="H_E5LtV-WD_p9e9fuidO-1" target="H_E5LtV-WD_p9e9fuidO-11" edge="1">
          <mxGeometry relative="1" as="geometry" />
        </mxCell>
        <mxCell id="H_E5LtV-WD_p9e9fuidO-1" value="temp *= digit&lt;div&gt;temp += &lt;br&gt;(clicked_number&amp;nbsp;&lt;span style=&quot;background-color: initial;&quot;&gt;* dec *&amp;nbsp;&lt;/span&gt;&lt;span style=&quot;background-color: initial;&quot;&gt;sign&lt;/span&gt;&lt;span style=&quot;background-color: initial;&quot;&gt;)&lt;/span&gt;&lt;/div&gt;" style="whiteSpace=wrap;html=1;verticalAlign=middle;align=center;" parent="WIyWlLk6GJQsqaUBKTNV-1" vertex="1">
          <mxGeometry x="240" y="440.05" width="158.5" height="60" as="geometry" />
        </mxCell>
        <mxCell id="H_E5LtV-WD_p9e9fuidO-9" style="edgeStyle=orthogonalEdgeStyle;rounded=0;orthogonalLoop=1;jettySize=auto;html=1;exitX=0.5;exitY=1;exitDx=0;exitDy=0;entryX=0.5;entryY=0;entryDx=0;entryDy=0;align=center;verticalAlign=middle;" parent="WIyWlLk6GJQsqaUBKTNV-1" source="H_E5LtV-WD_p9e9fuidO-7" target="H_E5LtV-WD_p9e9fuidO-80" edge="1">
          <mxGeometry relative="1" as="geometry">
            <mxPoint x="448.75" y="200" as="targetPoint" />
            <Array as="points">
              <mxPoint x="148" y="190" />
              <mxPoint x="148" y="190" />
              <mxPoint x="148" y="200" />
            </Array>
          </mxGeometry>
        </mxCell>
        <mxCell id="H_E5LtV-WD_p9e9fuidO-7" value="temp = 0&lt;div&gt;dec = 1&lt;/div&gt;&lt;div&gt;float_flag = 0&lt;/div&gt;&lt;div&gt;digit = 10&lt;/div&gt;&lt;div&gt;sign = 1&lt;/div&gt;" style="whiteSpace=wrap;html=1;verticalAlign=middle;align=center;" parent="WIyWlLk6GJQsqaUBKTNV-1" vertex="1">
          <mxGeometry x="94.5" y="100" width="106" height="80" as="geometry" />
        </mxCell>
        <mxCell id="H_E5LtV-WD_p9e9fuidO-16" value="" style="edgeStyle=orthogonalEdgeStyle;rounded=0;orthogonalLoop=1;jettySize=auto;html=1;entryX=0.5;entryY=0;entryDx=0;entryDy=0;" parent="WIyWlLk6GJQsqaUBKTNV-1" source="H_E5LtV-WD_p9e9fuidO-11" target="H_E5LtV-WD_p9e9fuidO-17" edge="1">
          <mxGeometry relative="1" as="geometry">
            <mxPoint x="458.5" y="550.05" as="targetPoint" />
          </mxGeometry>
        </mxCell>
        <mxCell id="H_E5LtV-WD_p9e9fuidO-50" value="True" style="edgeLabel;html=1;align=center;verticalAlign=middle;resizable=0;points=[];" parent="H_E5LtV-WD_p9e9fuidO-16" vertex="1" connectable="0">
          <mxGeometry x="-0.6226" y="-1" relative="1" as="geometry">
            <mxPoint x="1" y="5" as="offset" />
          </mxGeometry>
        </mxCell>
        <mxCell id="yC2tWY4SsJFRFMj9xrX8-5" style="edgeStyle=orthogonalEdgeStyle;rounded=0;orthogonalLoop=1;jettySize=auto;html=1;entryX=1;entryY=0.5;entryDx=0;entryDy=0;" edge="1" parent="WIyWlLk6GJQsqaUBKTNV-1" source="H_E5LtV-WD_p9e9fuidO-11" target="H_E5LtV-WD_p9e9fuidO-80">
          <mxGeometry relative="1" as="geometry">
            <mxPoint x="380" y="310" as="targetPoint" />
            <Array as="points">
              <mxPoint x="420" y="555" />
              <mxPoint x="420" y="630" />
              <mxPoint x="810" y="630" />
              <mxPoint x="810" y="230" />
            </Array>
          </mxGeometry>
        </mxCell>
        <mxCell id="yC2tWY4SsJFRFMj9xrX8-6" value="False" style="edgeLabel;html=1;align=center;verticalAlign=middle;resizable=0;points=[];" vertex="1" connectable="0" parent="yC2tWY4SsJFRFMj9xrX8-5">
          <mxGeometry x="-0.9039" y="3" relative="1" as="geometry">
            <mxPoint x="-3" y="5" as="offset" />
          </mxGeometry>
        </mxCell>
        <mxCell id="H_E5LtV-WD_p9e9fuidO-11" value="float_flag&amp;nbsp;== 0" style="rhombus;whiteSpace=wrap;html=1;verticalAlign=middle;align=center;" parent="WIyWlLk6GJQsqaUBKTNV-1" vertex="1">
          <mxGeometry x="264.25" y="530" width="110" height="50" as="geometry" />
        </mxCell>
        <mxCell id="H_E5LtV-WD_p9e9fuidO-75" style="edgeStyle=orthogonalEdgeStyle;rounded=0;orthogonalLoop=1;jettySize=auto;html=1;exitX=1;exitY=0.5;exitDx=0;exitDy=0;entryX=1;entryY=0.5;entryDx=0;entryDy=0;" parent="WIyWlLk6GJQsqaUBKTNV-1" source="H_E5LtV-WD_p9e9fuidO-17" target="H_E5LtV-WD_p9e9fuidO-80" edge="1">
          <mxGeometry relative="1" as="geometry">
            <mxPoint x="384.25" y="748.7555555555556" as="sourcePoint" />
            <mxPoint x="230" y="230" as="targetPoint" />
            <Array as="points">
              <mxPoint x="810" y="630" />
              <mxPoint x="810" y="230" />
            </Array>
          </mxGeometry>
        </mxCell>
        <mxCell id="H_E5LtV-WD_p9e9fuidO-17" value="dec *= 0.1" style="whiteSpace=wrap;html=1;" parent="WIyWlLk6GJQsqaUBKTNV-1" vertex="1">
          <mxGeometry x="270" y="610" width="98.5" height="40" as="geometry" />
        </mxCell>
        <mxCell id="H_E5LtV-WD_p9e9fuidO-21" style="edgeStyle=orthogonalEdgeStyle;rounded=0;orthogonalLoop=1;jettySize=auto;html=1;entryX=0.5;entryY=0;entryDx=0;entryDy=0;exitX=1;exitY=0.5;exitDx=0;exitDy=0;" parent="WIyWlLk6GJQsqaUBKTNV-1" source="H_E5LtV-WD_p9e9fuidO-19" target="H_E5LtV-WD_p9e9fuidO-1" edge="1">
          <mxGeometry relative="1" as="geometry">
            <Array as="points">
              <mxPoint x="320" y="385" />
              <mxPoint x="320" y="440" />
            </Array>
          </mxGeometry>
        </mxCell>
        <mxCell id="H_E5LtV-WD_p9e9fuidO-29" value="number(0~9)" style="edgeLabel;html=1;align=center;verticalAlign=middle;resizable=0;points=[];" parent="H_E5LtV-WD_p9e9fuidO-21" vertex="1" connectable="0">
          <mxGeometry x="-0.1948" relative="1" as="geometry">
            <mxPoint x="22" y="25" as="offset" />
          </mxGeometry>
        </mxCell>
        <mxCell id="H_E5LtV-WD_p9e9fuidO-23" value="" style="edgeStyle=orthogonalEdgeStyle;rounded=0;orthogonalLoop=1;jettySize=auto;html=1;" parent="WIyWlLk6GJQsqaUBKTNV-1" source="H_E5LtV-WD_p9e9fuidO-19" target="H_E5LtV-WD_p9e9fuidO-22" edge="1">
          <mxGeometry relative="1" as="geometry" />
        </mxCell>
        <mxCell id="H_E5LtV-WD_p9e9fuidO-28" value="calculator(=)" style="edgeLabel;html=1;align=center;verticalAlign=middle;resizable=0;points=[];" parent="H_E5LtV-WD_p9e9fuidO-23" vertex="1" connectable="0">
          <mxGeometry x="-0.0836" y="1" relative="1" as="geometry">
            <mxPoint as="offset" />
          </mxGeometry>
        </mxCell>
        <mxCell id="H_E5LtV-WD_p9e9fuidO-25" value="" style="edgeStyle=orthogonalEdgeStyle;rounded=0;orthogonalLoop=1;jettySize=auto;html=1;exitX=0;exitY=0.5;exitDx=0;exitDy=0;entryX=0.5;entryY=0;entryDx=0;entryDy=0;" parent="WIyWlLk6GJQsqaUBKTNV-1" source="H_E5LtV-WD_p9e9fuidO-19" target="H_E5LtV-WD_p9e9fuidO-24" edge="1">
          <mxGeometry relative="1" as="geometry">
            <mxPoint x="-402.5" y="387.5" as="sourcePoint" />
            <Array as="points">
              <mxPoint x="642" y="385" />
            </Array>
          </mxGeometry>
        </mxCell>
        <mxCell id="H_E5LtV-WD_p9e9fuidO-26" value="operator(+, -, *, /)" style="edgeLabel;html=1;align=center;verticalAlign=middle;resizable=0;points=[];" parent="H_E5LtV-WD_p9e9fuidO-25" vertex="1" connectable="0">
          <mxGeometry x="-0.1948" y="-2" relative="1" as="geometry">
            <mxPoint x="327" y="23" as="offset" />
          </mxGeometry>
        </mxCell>
        <mxCell id="H_E5LtV-WD_p9e9fuidO-31" value="" style="edgeStyle=orthogonalEdgeStyle;rounded=0;orthogonalLoop=1;jettySize=auto;html=1;entryX=0.5;entryY=0;entryDx=0;entryDy=0;exitX=1;exitY=0.5;exitDx=0;exitDy=0;" parent="WIyWlLk6GJQsqaUBKTNV-1" source="H_E5LtV-WD_p9e9fuidO-19" target="H_E5LtV-WD_p9e9fuidO-30" edge="1">
          <mxGeometry relative="1" as="geometry">
            <Array as="points">
              <mxPoint x="443" y="385" />
              <mxPoint x="443" y="440" />
            </Array>
          </mxGeometry>
        </mxCell>
        <mxCell id="H_E5LtV-WD_p9e9fuidO-51" value="point( . )" style="edgeLabel;html=1;align=center;verticalAlign=middle;resizable=0;points=[];" parent="H_E5LtV-WD_p9e9fuidO-31" vertex="1" connectable="0">
          <mxGeometry x="0.8877" relative="1" as="geometry">
            <mxPoint y="-15" as="offset" />
          </mxGeometry>
        </mxCell>
        <mxCell id="H_E5LtV-WD_p9e9fuidO-62" style="edgeStyle=orthogonalEdgeStyle;rounded=0;orthogonalLoop=1;jettySize=auto;html=1;entryX=0.5;entryY=0;entryDx=0;entryDy=0;" parent="WIyWlLk6GJQsqaUBKTNV-1" source="H_E5LtV-WD_p9e9fuidO-19" target="H_E5LtV-WD_p9e9fuidO-61" edge="1">
          <mxGeometry relative="1" as="geometry" />
        </mxCell>
        <mxCell id="H_E5LtV-WD_p9e9fuidO-68" value="&lt;span style=&quot;font-size: 12px; text-wrap-mode: wrap; background-color: rgb(251, 251, 251);&quot;&gt;(±)&lt;/span&gt;" style="edgeLabel;html=1;align=center;verticalAlign=middle;resizable=0;points=[];" parent="H_E5LtV-WD_p9e9fuidO-62" vertex="1" connectable="0">
          <mxGeometry x="0.9171" y="3" relative="1" as="geometry">
            <mxPoint x="-3" y="-29" as="offset" />
          </mxGeometry>
        </mxCell>
        <mxCell id="yC2tWY4SsJFRFMj9xrX8-2" style="edgeStyle=orthogonalEdgeStyle;rounded=0;orthogonalLoop=1;jettySize=auto;html=1;entryX=0.5;entryY=0;entryDx=0;entryDy=0;" edge="1" parent="WIyWlLk6GJQsqaUBKTNV-1" source="H_E5LtV-WD_p9e9fuidO-19" target="yC2tWY4SsJFRFMj9xrX8-1">
          <mxGeometry relative="1" as="geometry" />
        </mxCell>
        <mxCell id="yC2tWY4SsJFRFMj9xrX8-3" value="x ^ 2" style="edgeLabel;html=1;align=center;verticalAlign=middle;resizable=0;points=[];" vertex="1" connectable="0" parent="yC2tWY4SsJFRFMj9xrX8-2">
          <mxGeometry x="0.8843" y="3" relative="1" as="geometry">
            <mxPoint as="offset" />
          </mxGeometry>
        </mxCell>
        <mxCell id="H_E5LtV-WD_p9e9fuidO-19" value="user clicked button is&lt;div&gt;&amp;nbsp;number or point(.)&amp;nbsp;&lt;span style=&quot;background-color: initial;&quot;&gt;or&amp;nbsp;&lt;/span&gt;&lt;/div&gt;&lt;div&gt;&lt;span style=&quot;background-color: initial;&quot;&gt;operator&amp;nbsp;&lt;/span&gt;&lt;span style=&quot;background-color: initial;&quot;&gt;or calculate&lt;/span&gt;&lt;/div&gt;" style="rhombus;whiteSpace=wrap;html=1;" parent="WIyWlLk6GJQsqaUBKTNV-1" vertex="1">
          <mxGeometry x="40" y="340" width="215" height="90" as="geometry" />
        </mxCell>
        <mxCell id="H_E5LtV-WD_p9e9fuidO-33" value="" style="edgeStyle=orthogonalEdgeStyle;rounded=0;orthogonalLoop=1;jettySize=auto;html=1;entryX=0.5;entryY=0;entryDx=0;entryDy=0;" parent="WIyWlLk6GJQsqaUBKTNV-1" source="H_E5LtV-WD_p9e9fuidO-22" target="yC2tWY4SsJFRFMj9xrX8-7" edge="1">
          <mxGeometry relative="1" as="geometry">
            <mxPoint x="147.5" y="590" as="targetPoint" />
          </mxGeometry>
        </mxCell>
        <mxCell id="H_E5LtV-WD_p9e9fuidO-22" value="operand_2 = temp * sign" style="whiteSpace=wrap;html=1;" parent="WIyWlLk6GJQsqaUBKTNV-1" vertex="1">
          <mxGeometry x="75.5" y="490" width="144" height="40" as="geometry" />
        </mxCell>
        <mxCell id="H_E5LtV-WD_p9e9fuidO-78" style="edgeStyle=orthogonalEdgeStyle;rounded=0;orthogonalLoop=1;jettySize=auto;html=1;entryX=1;entryY=0.5;entryDx=0;entryDy=0;exitX=0.5;exitY=1;exitDx=0;exitDy=0;" parent="WIyWlLk6GJQsqaUBKTNV-1" source="H_E5LtV-WD_p9e9fuidO-24" target="H_E5LtV-WD_p9e9fuidO-80" edge="1">
          <mxGeometry relative="1" as="geometry">
            <Array as="points">
              <mxPoint x="640" y="490" />
              <mxPoint x="640" y="630" />
              <mxPoint x="810" y="630" />
              <mxPoint x="810" y="230" />
            </Array>
            <mxPoint x="650" y="520" as="sourcePoint" />
          </mxGeometry>
        </mxCell>
        <mxCell id="H_E5LtV-WD_p9e9fuidO-24" value="operand_1 = temp" style="whiteSpace=wrap;html=1;" parent="WIyWlLk6GJQsqaUBKTNV-1" vertex="1">
          <mxGeometry x="582" y="450.04999999999995" width="120" height="40" as="geometry" />
        </mxCell>
        <mxCell id="H_E5LtV-WD_p9e9fuidO-76" style="edgeStyle=orthogonalEdgeStyle;rounded=0;orthogonalLoop=1;jettySize=auto;html=1;entryX=1;entryY=0.5;entryDx=0;entryDy=0;" parent="WIyWlLk6GJQsqaUBKTNV-1" source="H_E5LtV-WD_p9e9fuidO-30" target="H_E5LtV-WD_p9e9fuidO-80" edge="1">
          <mxGeometry relative="1" as="geometry">
            <mxPoint x="390" y="440" as="targetPoint" />
            <Array as="points">
              <mxPoint x="446" y="630" />
              <mxPoint x="810" y="630" />
              <mxPoint x="810" y="230" />
            </Array>
          </mxGeometry>
        </mxCell>
        <mxCell id="H_E5LtV-WD_p9e9fuidO-30" value="digit = 1&lt;div&gt;dec = 0.1&lt;/div&gt;&lt;div&gt;&lt;span style=&quot;background-color: initial;&quot;&gt;float_flag&lt;/span&gt;&amp;nbsp;= 0&lt;/div&gt;" style="whiteSpace=wrap;html=1;" parent="WIyWlLk6GJQsqaUBKTNV-1" vertex="1">
          <mxGeometry x="404.5" y="440.04999999999995" width="76" height="60" as="geometry" />
        </mxCell>
        <mxCell id="H_E5LtV-WD_p9e9fuidO-38" value="" style="edgeStyle=orthogonalEdgeStyle;rounded=0;orthogonalLoop=1;jettySize=auto;html=1;entryX=0;entryY=0.5;entryDx=0;entryDy=0;" parent="WIyWlLk6GJQsqaUBKTNV-1" target="H_E5LtV-WD_p9e9fuidO-37" edge="1" source="H_E5LtV-WD_p9e9fuidO-36">
          <mxGeometry relative="1" as="geometry">
            <mxPoint x="147.5" y="631" as="sourcePoint" />
            <mxPoint x="207.90999999999997" y="688" as="targetPoint" />
            <Array as="points">
              <mxPoint x="148" y="715" />
            </Array>
          </mxGeometry>
        </mxCell>
        <mxCell id="H_E5LtV-WD_p9e9fuidO-39" value="( + )" style="edgeLabel;html=1;align=center;verticalAlign=middle;resizable=0;points=[];" parent="H_E5LtV-WD_p9e9fuidO-38" vertex="1" connectable="0">
          <mxGeometry x="0.4559" relative="1" as="geometry">
            <mxPoint x="-9" as="offset" />
          </mxGeometry>
        </mxCell>
        <mxCell id="H_E5LtV-WD_p9e9fuidO-70" style="edgeStyle=orthogonalEdgeStyle;rounded=0;orthogonalLoop=1;jettySize=auto;html=1;" parent="WIyWlLk6GJQsqaUBKTNV-1" source="H_E5LtV-WD_p9e9fuidO-37" target="H_E5LtV-WD_p9e9fuidO-54" edge="1">
          <mxGeometry relative="1" as="geometry" />
        </mxCell>
        <mxCell id="H_E5LtV-WD_p9e9fuidO-37" value="result =&lt;div&gt;operand_1 +&amp;nbsp;&lt;span style=&quot;background-color: initial;&quot;&gt;operand_2&lt;/span&gt;&lt;/div&gt;" style="whiteSpace=wrap;html=1;" parent="WIyWlLk6GJQsqaUBKTNV-1" vertex="1">
          <mxGeometry x="209.99999999999997" y="690" width="150" height="50" as="geometry" />
        </mxCell>
        <mxCell id="H_E5LtV-WD_p9e9fuidO-71" style="edgeStyle=orthogonalEdgeStyle;rounded=0;orthogonalLoop=1;jettySize=auto;html=1;entryX=0;entryY=0.5;entryDx=0;entryDy=0;" parent="WIyWlLk6GJQsqaUBKTNV-1" source="H_E5LtV-WD_p9e9fuidO-40" target="H_E5LtV-WD_p9e9fuidO-54" edge="1">
          <mxGeometry relative="1" as="geometry">
            <mxPoint x="437.5" y="690" as="targetPoint" />
            <Array as="points">
              <mxPoint x="398" y="770" />
              <mxPoint x="398" y="715" />
            </Array>
          </mxGeometry>
        </mxCell>
        <mxCell id="H_E5LtV-WD_p9e9fuidO-40" value="result =&lt;div&gt;operand_1 -&amp;nbsp;&lt;span style=&quot;background-color: initial;&quot;&gt;operand_2&lt;/span&gt;&lt;/div&gt;" style="whiteSpace=wrap;html=1;" parent="WIyWlLk6GJQsqaUBKTNV-1" vertex="1">
          <mxGeometry x="209.99999999999997" y="746" width="150" height="50" as="geometry" />
        </mxCell>
        <mxCell id="H_E5LtV-WD_p9e9fuidO-72" style="edgeStyle=orthogonalEdgeStyle;rounded=0;orthogonalLoop=1;jettySize=auto;html=1;entryX=0;entryY=0.5;entryDx=0;entryDy=0;" parent="WIyWlLk6GJQsqaUBKTNV-1" source="H_E5LtV-WD_p9e9fuidO-41" target="H_E5LtV-WD_p9e9fuidO-54" edge="1">
          <mxGeometry relative="1" as="geometry">
            <Array as="points">
              <mxPoint x="398" y="828" />
              <mxPoint x="398" y="715" />
            </Array>
          </mxGeometry>
        </mxCell>
        <mxCell id="H_E5LtV-WD_p9e9fuidO-41" value="result =&lt;div&gt;operand_1 *&amp;nbsp;&lt;span style=&quot;background-color: initial;&quot;&gt;operand_2&lt;/span&gt;&lt;/div&gt;" style="whiteSpace=wrap;html=1;" parent="WIyWlLk6GJQsqaUBKTNV-1" vertex="1">
          <mxGeometry x="209.99999999999997" y="803" width="150" height="50" as="geometry" />
        </mxCell>
        <mxCell id="H_E5LtV-WD_p9e9fuidO-73" style="edgeStyle=orthogonalEdgeStyle;rounded=0;orthogonalLoop=1;jettySize=auto;html=1;entryX=0;entryY=0.5;entryDx=0;entryDy=0;" parent="WIyWlLk6GJQsqaUBKTNV-1" source="H_E5LtV-WD_p9e9fuidO-42" target="H_E5LtV-WD_p9e9fuidO-54" edge="1">
          <mxGeometry relative="1" as="geometry">
            <mxPoint x="437.5" y="700" as="targetPoint" />
            <Array as="points">
              <mxPoint x="398" y="890" />
              <mxPoint x="398" y="715" />
            </Array>
          </mxGeometry>
        </mxCell>
        <mxCell id="H_E5LtV-WD_p9e9fuidO-42" value="result =&lt;div&gt;operand_1 /&amp;nbsp;&lt;span style=&quot;background-color: initial;&quot;&gt;operand_2&lt;/span&gt;&lt;/div&gt;" style="whiteSpace=wrap;html=1;" parent="WIyWlLk6GJQsqaUBKTNV-1" vertex="1">
          <mxGeometry x="209.99999999999997" y="861" width="150" height="50" as="geometry" />
        </mxCell>
        <mxCell id="H_E5LtV-WD_p9e9fuidO-43" value="" style="edgeStyle=orthogonalEdgeStyle;rounded=0;orthogonalLoop=1;jettySize=auto;html=1;exitX=0.5;exitY=1;exitDx=0;exitDy=0;entryX=0;entryY=0.5;entryDx=0;entryDy=0;" parent="WIyWlLk6GJQsqaUBKTNV-1" source="H_E5LtV-WD_p9e9fuidO-36" target="H_E5LtV-WD_p9e9fuidO-40" edge="1">
          <mxGeometry relative="1" as="geometry">
            <mxPoint x="157.5" y="645" as="sourcePoint" />
            <mxPoint x="188.5" y="740" as="targetPoint" />
            <Array as="points">
              <mxPoint x="148" y="771" />
            </Array>
          </mxGeometry>
        </mxCell>
        <mxCell id="H_E5LtV-WD_p9e9fuidO-44" value="( - )" style="edgeLabel;html=1;align=center;verticalAlign=middle;resizable=0;points=[];" parent="H_E5LtV-WD_p9e9fuidO-43" vertex="1" connectable="0">
          <mxGeometry x="0.4559" relative="1" as="geometry">
            <mxPoint x="4" as="offset" />
          </mxGeometry>
        </mxCell>
        <mxCell id="H_E5LtV-WD_p9e9fuidO-45" value="" style="edgeStyle=orthogonalEdgeStyle;rounded=0;orthogonalLoop=1;jettySize=auto;html=1;entryX=0;entryY=0.5;entryDx=0;entryDy=0;exitX=0.5;exitY=1;exitDx=0;exitDy=0;" parent="WIyWlLk6GJQsqaUBKTNV-1" source="H_E5LtV-WD_p9e9fuidO-36" target="H_E5LtV-WD_p9e9fuidO-41" edge="1">
          <mxGeometry relative="1" as="geometry">
            <mxPoint x="157.5" y="645" as="sourcePoint" />
            <mxPoint x="107.5" y="745" as="targetPoint" />
            <Array as="points">
              <mxPoint x="148" y="828" />
            </Array>
          </mxGeometry>
        </mxCell>
        <mxCell id="H_E5LtV-WD_p9e9fuidO-46" value="( x )" style="edgeLabel;html=1;align=center;verticalAlign=middle;resizable=0;points=[];" parent="H_E5LtV-WD_p9e9fuidO-45" vertex="1" connectable="0">
          <mxGeometry x="0.4559" relative="1" as="geometry">
            <mxPoint x="19" as="offset" />
          </mxGeometry>
        </mxCell>
        <mxCell id="H_E5LtV-WD_p9e9fuidO-47" value="" style="edgeStyle=orthogonalEdgeStyle;rounded=0;orthogonalLoop=1;jettySize=auto;html=1;entryX=0;entryY=0.5;entryDx=0;entryDy=0;exitX=0.5;exitY=1;exitDx=0;exitDy=0;" parent="WIyWlLk6GJQsqaUBKTNV-1" source="H_E5LtV-WD_p9e9fuidO-36" target="H_E5LtV-WD_p9e9fuidO-42" edge="1">
          <mxGeometry relative="1" as="geometry">
            <mxPoint x="157.5" y="645" as="sourcePoint" />
            <mxPoint x="107.5" y="805" as="targetPoint" />
            <Array as="points">
              <mxPoint x="148" y="886" />
            </Array>
          </mxGeometry>
        </mxCell>
        <mxCell id="H_E5LtV-WD_p9e9fuidO-48" value="( / )" style="edgeLabel;html=1;align=center;verticalAlign=middle;resizable=0;points=[];" parent="H_E5LtV-WD_p9e9fuidO-47" vertex="1" connectable="0">
          <mxGeometry x="0.4559" relative="1" as="geometry">
            <mxPoint x="30" y="6" as="offset" />
          </mxGeometry>
        </mxCell>
        <mxCell id="H_E5LtV-WD_p9e9fuidO-79" style="edgeStyle=orthogonalEdgeStyle;rounded=0;orthogonalLoop=1;jettySize=auto;html=1;entryX=1;entryY=0.5;entryDx=0;entryDy=0;exitX=1;exitY=0.5;exitDx=0;exitDy=0;" parent="WIyWlLk6GJQsqaUBKTNV-1" source="yC2tWY4SsJFRFMj9xrX8-14" target="H_E5LtV-WD_p9e9fuidO-80" edge="1">
          <mxGeometry relative="1" as="geometry">
            <mxPoint x="740" y="520" as="targetPoint" />
            <Array as="points">
              <mxPoint x="740" y="715" />
              <mxPoint x="810" y="715" />
              <mxPoint x="810" y="230" />
            </Array>
          </mxGeometry>
        </mxCell>
        <mxCell id="H_E5LtV-WD_p9e9fuidO-54" value="&lt;span style=&quot;font-size: 22px;&quot;&gt;input&lt;/span&gt;&lt;br style=&quot;font-size: 22px;&quot;&gt;&lt;span style=&quot;font-size: 22px;&quot;&gt;value&lt;/span&gt;" style="shape=parallelogram;perimeter=parallelogramPerimeter;whiteSpace=wrap;html=1;fixedSize=1;fontSize=17;" parent="WIyWlLk6GJQsqaUBKTNV-1" vertex="1">
          <mxGeometry x="471.5" y="685" width="120" height="60" as="geometry" />
        </mxCell>
        <mxCell id="H_E5LtV-WD_p9e9fuidO-77" style="edgeStyle=orthogonalEdgeStyle;rounded=0;orthogonalLoop=1;jettySize=auto;html=1;entryX=1;entryY=0.5;entryDx=0;entryDy=0;exitX=0.5;exitY=1;exitDx=0;exitDy=0;" parent="WIyWlLk6GJQsqaUBKTNV-1" source="H_E5LtV-WD_p9e9fuidO-61" target="H_E5LtV-WD_p9e9fuidO-80" edge="1">
          <mxGeometry relative="1" as="geometry">
            <Array as="points">
              <mxPoint x="532" y="630" />
              <mxPoint x="810" y="630" />
              <mxPoint x="810" y="230" />
            </Array>
          </mxGeometry>
        </mxCell>
        <mxCell id="H_E5LtV-WD_p9e9fuidO-61" value="temp *= -1&lt;div&gt;sign *= -1&lt;/div&gt;" style="whiteSpace=wrap;html=1;" parent="WIyWlLk6GJQsqaUBKTNV-1" vertex="1">
          <mxGeometry x="486.5" y="450" width="90" height="40" as="geometry" />
        </mxCell>
        <mxCell id="H_E5LtV-WD_p9e9fuidO-81" style="edgeStyle=orthogonalEdgeStyle;rounded=0;orthogonalLoop=1;jettySize=auto;html=1;entryX=0.5;entryY=0;entryDx=0;entryDy=0;" parent="WIyWlLk6GJQsqaUBKTNV-1" source="H_E5LtV-WD_p9e9fuidO-80" target="H_E5LtV-WD_p9e9fuidO-19" edge="1">
          <mxGeometry relative="1" as="geometry">
            <mxPoint x="200" y="340" as="targetPoint" />
          </mxGeometry>
        </mxCell>
        <mxCell id="H_E5LtV-WD_p9e9fuidO-83" value="&lt;span style=&quot;font-size: 17px; text-wrap-mode: wrap; background-color: rgb(251, 251, 251);&quot;&gt;user&amp;nbsp;&lt;/span&gt;&lt;span style=&quot;background-color: rgb(251, 251, 251); font-size: 17px; text-wrap-mode: wrap;&quot;&gt;push button&amp;nbsp;&lt;/span&gt;&lt;div&gt;&lt;span style=&quot;background-color: rgb(251, 251, 251); text-wrap-mode: wrap;&quot;&gt;click(number:0~9, &#39;.&#39;, &#39;±&#39;)&lt;/span&gt;&lt;/div&gt;" style="edgeLabel;html=1;align=center;verticalAlign=middle;resizable=0;points=[];fontSize=17;imageWidth=24;imageHeight=24;" parent="H_E5LtV-WD_p9e9fuidO-81" vertex="1" connectable="0">
          <mxGeometry relative="1" as="geometry">
            <mxPoint x="86" as="offset" />
          </mxGeometry>
        </mxCell>
        <mxCell id="H_E5LtV-WD_p9e9fuidO-80" value="display&lt;div&gt;&lt;font style=&quot;font-size: 18px;&quot;&gt;(formula, result)&lt;/font&gt;&lt;/div&gt;" style="shape=parallelogram;perimeter=parallelogramPerimeter;whiteSpace=wrap;html=1;fixedSize=1;verticalAlign=middle;align=center;fontSize=24;" parent="WIyWlLk6GJQsqaUBKTNV-1" vertex="1">
          <mxGeometry x="61.25" y="200" width="172.5" height="60" as="geometry" />
        </mxCell>
        <mxCell id="yC2tWY4SsJFRFMj9xrX8-4" style="edgeStyle=orthogonalEdgeStyle;rounded=0;orthogonalLoop=1;jettySize=auto;html=1;entryX=1;entryY=0.5;entryDx=0;entryDy=0;" edge="1" parent="WIyWlLk6GJQsqaUBKTNV-1" source="yC2tWY4SsJFRFMj9xrX8-1" target="H_E5LtV-WD_p9e9fuidO-80">
          <mxGeometry relative="1" as="geometry">
            <mxPoint x="770" y="610" as="targetPoint" />
            <Array as="points">
              <mxPoint x="745" y="630" />
              <mxPoint x="810" y="630" />
              <mxPoint x="810" y="230" />
            </Array>
          </mxGeometry>
        </mxCell>
        <mxCell id="yC2tWY4SsJFRFMj9xrX8-1" value="temp ^ 2" style="whiteSpace=wrap;html=1;" vertex="1" parent="WIyWlLk6GJQsqaUBKTNV-1">
          <mxGeometry x="708" y="450" width="73" height="40" as="geometry" />
        </mxCell>
        <mxCell id="yC2tWY4SsJFRFMj9xrX8-8" style="edgeStyle=orthogonalEdgeStyle;rounded=0;orthogonalLoop=1;jettySize=auto;html=1;entryX=0.5;entryY=0;entryDx=0;entryDy=0;" edge="1" parent="WIyWlLk6GJQsqaUBKTNV-1" source="yC2tWY4SsJFRFMj9xrX8-7" target="H_E5LtV-WD_p9e9fuidO-36">
          <mxGeometry relative="1" as="geometry" />
        </mxCell>
        <mxCell id="yC2tWY4SsJFRFMj9xrX8-16" value="True" style="edgeLabel;html=1;align=center;verticalAlign=middle;resizable=0;points=[];" vertex="1" connectable="0" parent="yC2tWY4SsJFRFMj9xrX8-8">
          <mxGeometry x="-0.0787" y="1" relative="1" as="geometry">
            <mxPoint x="-18" y="4" as="offset" />
          </mxGeometry>
        </mxCell>
        <mxCell id="yC2tWY4SsJFRFMj9xrX8-13" style="edgeStyle=orthogonalEdgeStyle;rounded=0;orthogonalLoop=1;jettySize=auto;html=1;entryX=1;entryY=0.5;entryDx=0;entryDy=0;" edge="1" parent="WIyWlLk6GJQsqaUBKTNV-1" source="yC2tWY4SsJFRFMj9xrX8-7" target="H_E5LtV-WD_p9e9fuidO-80">
          <mxGeometry relative="1" as="geometry">
            <mxPoint x="260" y="420" as="targetPoint" />
            <Array as="points">
              <mxPoint x="250" y="585" />
              <mxPoint x="250" y="670" />
              <mxPoint x="810" y="670" />
              <mxPoint x="810" y="230" />
            </Array>
          </mxGeometry>
        </mxCell>
        <mxCell id="yC2tWY4SsJFRFMj9xrX8-17" value="False" style="edgeLabel;html=1;align=center;verticalAlign=middle;resizable=0;points=[];" vertex="1" connectable="0" parent="yC2tWY4SsJFRFMj9xrX8-13">
          <mxGeometry x="-0.9235" y="-1" relative="1" as="geometry">
            <mxPoint x="-15" as="offset" />
          </mxGeometry>
        </mxCell>
        <mxCell id="yC2tWY4SsJFRFMj9xrX8-7" value="operand_1 != 0 and&lt;div&gt;operand_2 != 0&lt;/div&gt;" style="rhombus;whiteSpace=wrap;html=1;" vertex="1" parent="WIyWlLk6GJQsqaUBKTNV-1">
          <mxGeometry x="68.75" y="552" width="157.5" height="65" as="geometry" />
        </mxCell>
        <mxCell id="H_E5LtV-WD_p9e9fuidO-36" value="operator" style="rhombus;whiteSpace=wrap;html=1;" parent="WIyWlLk6GJQsqaUBKTNV-1" vertex="1">
          <mxGeometry x="97.5" y="640" width="100" height="60" as="geometry" />
        </mxCell>
        <mxCell id="yC2tWY4SsJFRFMj9xrX8-14" value="&lt;span style=&quot;font-size: 17px;&quot;&gt;Calculation formula&lt;/span&gt;" style="shape=parallelogram;perimeter=parallelogramPerimeter;whiteSpace=wrap;html=1;fixedSize=1;fontSize=22;" vertex="1" parent="WIyWlLk6GJQsqaUBKTNV-1">
          <mxGeometry x="640" y="685" width="120" height="60" as="geometry" />
        </mxCell>
        <mxCell id="yC2tWY4SsJFRFMj9xrX8-15" style="edgeStyle=orthogonalEdgeStyle;rounded=0;orthogonalLoop=1;jettySize=auto;html=1;exitX=1;exitY=0.5;exitDx=0;exitDy=0;entryX=0;entryY=0.5;entryDx=0;entryDy=0;" edge="1" parent="WIyWlLk6GJQsqaUBKTNV-1" source="H_E5LtV-WD_p9e9fuidO-54" target="yC2tWY4SsJFRFMj9xrX8-14">
          <mxGeometry relative="1" as="geometry" />
        </mxCell>
      </root>
    </mxGraphModel>
  </diagram>
</mxfile>
